<?xml version="1.0" encoding="UTF-8" standalone="no"?>
<svg
   version="1.1"
   viewBox="301 32 974 974"
   width="974"
   height="974"
   id="svg36"
   sodipodi:docname="manuscript-OTS-jh-best.svg"
   inkscape:version="1.4.3 (0d15f75, 2025-12-25)"
   xmlns:inkscape="http://www.inkscape.org/namespaces/inkscape"
   xmlns:sodipodi="http://sodipodi.sourceforge.net/DTD/sodipodi-0.dtd"
   xmlns="http://www.w3.org/2000/svg"
   xmlns:svg="http://www.w3.org/2000/svg">
  <defs
     id="defs36">
    <linearGradient
       id="swatch36"
       inkscape:swatch="solid">
      <stop
         style="stop-color:#000000;stop-opacity:1;"
         offset="0"
         id="stop36" />
    </linearGradient>
  </defs>
  <sodipodi:namedview
     id="namedview36"
     pagecolor="#ffffff"
     bordercolor="#000000"
     borderopacity="0.25"
     inkscape:showpageshadow="2"
     inkscape:pageopacity="0.0"
     inkscape:pagecheckerboard="0"
     inkscape:deskcolor="#d1d1d1"
     inkscape:zoom="1"
     inkscape:cx="789.5"
     inkscape:cy="274.5"
     inkscape:window-width="3840"
     inkscape:window-height="2084"
     inkscape:window-x="-8"
     inkscape:window-y="-8"
     inkscape:window-maximized="1"
     inkscape:current-layer="svg36" />
  <g
     inkscape:groupmode="layer"
     id="layer1"
     inkscape:label="background"
     style="display:inline">
    <circle
       style="display:inline;fill:#020617;fill-opacity:1"
       id="path37"
       cx="788"
       cy="519"
       r="487" />
  </g>
  <path
     transform="translate(478,348)"
     d="m0 0h42l24 4 16 4 16 6 16 8 12 8 10 9 10 10 11 15 7 12 7 17 5 16 4 23 1 11v17l-2 21-4 18-8 24-10 19-8 11-9 10-9 9-16 11-16 8-14 5-17 4-16 2h-41l-24-3-17-4-20-7-17-9-16-12-9-8-9-11-9-14-8-16-6-16-5-24-2-17v-14l2-22 5-24 8-22 10-18 10-13 9-10 11-10 19-12 19-8 19-5z"
     fill="#EFF0F1"
     id="path2" />
  <path
     transform="translate(1062,349)"
     d="m 0,0 h 26 l 36,3 23,4 17,5 12,6 9,8 6,10 3,10 V 61 L 49.157594,56.681088 31.550992,56.372583 29.445283,68.504311 32.162798,80.464466 37,84 l 7,16 10,14 21,21 8,7 7,7 8,7 13,15 11,18 5,11 4,16 1,8 v 22 l -4,18 -7,14 -8,9 -11,7 -10,4 -4,1 H -78 l -14,-4 -12,-7 -9,-8 -8,-14 -3,-8 -1,-14 2,-10 5,-12 9,-10 11,-7 10,-3 h 49 l -3,-8 -9,-13 -11,-13 -14,-17 -10,-16 -6,-13 -4,-16 -1,-6 V 79 l 3,-15 5,-12 6,-11 11,-12 10,-9 16,-9 16,-6 19,-4 z"
     fill="#f0f1f2"
     id="path3"
     sodipodi:nodetypes="cccccccccccccccccccccccccccccccccccccccccccccccccccccccccccccccc" />
  <path
     transform="translate(687,352)"
     d="m0 0h224l13 4 9 6 6 7 4 9 1 5v13l-3 9-5 8-5 4-7 3-85 1v197l3 13 4 6 5 4 11 4v2l-2 1h-94l-15-2-8-5-4-5-3-8-2-13v-195h-65l-8-7-5-8-2-6v-18l5-13 7-9 4-4 1-2z"
     fill="#EFF0F1"
     id="path4" />
  <path
     transform="translate(1062,349)"
     d="m 0,0 h 26 l 36,3 23,4 17,5 12,6 9,8 6,10 3,10 v 15 l -0.81802,5.050253 -98.570328,-2.076272 -0.691495,6.12132 1.303301,8.071068 L 37,84 l 7,16 10,14 21,21 8,7 7,7 8,7 13,15 11,18 5,11 4,16 1,8 v 22 l -4,18 -7,14 -8,9 -11,7 -10,4 -4,1 H -78 l -14,-4 -12,-7 -9,-8 -8,-14 -3,-8 -1,-14 2,-10 5,-12 9,-10 11,-7 10,-3 h 49 l -3,-8 -9,-13 -11,-13 -14,-17 -10,-16 -6,-13 -4,-16 -1,-6 V 79 l 3,-15 5,-12 6,-11 11,-12 10,-9 16,-9 16,-6 19,-4 z m 7,4 -19,2 -21,5 -12,5 -12,7 -13,11 -10,13 -7,14 -3,11 -1,7 v 18 l 3,17 7,19 10,16 13,16 13,15 9,14 4,8 103,1 13,4 9,7 6,8 3,8 v 16 l -6,12 -5,5 -6,4 -7,2 -18,-1 -23,-3 h -8 l 2,6 9,10 8,6 11,5 9,2 h 18 l 13,-4 11,-8 8,-11 5,-12 2,-9 1,-9 v -13 l -3,-20 -4,-11 -9,-17 -9,-12 L 89,155 77,143 69,136 59,127 52,119 43,109 35,96 30,83 28,74 V 58 l 2,-9 6,-12 8,-10 13,-9 10,-4 9,-2 V 10 L 59,7 37,5 Z"
     fill="#203144"
     id="path5"
     style="fill:#000000;fill-opacity:1"
     sodipodi:nodetypes="cccccccccccccccccccccccccccccccccccccccccccccccccccccccccccccccccccccccccccccccccccccccccccccccccccccccccccccccccccccccccccccccccccc" />
  <path
     transform="translate(482,351)"
     d="m0 0h31l25 3 26 7 3 1v2h-22l-19 3-16 5-16 8-11 8-7 6-9 11-9 14-7 15-6 19-3 16-1 9v34l3 18 6 21 7 16 8 12 11 13 8 7 13 8 8 4-1 3-15 7-16 5-19 3h-15l-11-1-10-4-12-8-10-8-12-13-10-15-9-19-6-19-4-24-1-14v-14l2-23 5-21 8-21 9-16 11-14 13-13 17-12 16-8 15-5 17-4z"
     fill="#EEEFF1"
     id="path6" />
  <path
     d="m 362,486.5 h 69 v 3 h -69 z"
     fill="#808c98"
     id="path31-8-5"
     style="fill:#9ca6b0;fill-opacity:1" />
  <path
     d="m 362,494.25 h 69 v 3 h -69 z"
     fill="#808c98"
     id="path31-8-5-1"
     style="fill:#9ca6b0;fill-opacity:1" />
  <path
     transform="translate(489,388)"
     d="m0 0 10 2 13 7 10 8 8 8 9 13 6 11 6 14 5 19 2 12 1 14-1 26-4 22-6 18-8 16-8 11-9 10-12 10-9-3-11-7-10-9-9-10-9-14-8-18-5-17-3-20v-34l3-20 4-15 7-18 10-16 11-14z"
     fill="#F8F8F8"
     id="path7"
     style="fill:#020617;fill-opacity:1" />
  <path
     transform="translate(979,555)"
     d="m0 0 128 1-5 4-10 9-7 14-2 8v13l4 13 7 11 9 8 10 6v1h-129l-13-4-10-6-9-9-7-14-1-4v-19l4-11 6-8 8-7 8-4z"
     fill="#F8F8F8"
     id="path8" />
  <path
     transform="translate(684,356)"
     d="m0 0h195l-3 3-9 5-5 4-8 11-3 9v14l4 10 1 4h-184l-5-5-4-5-3-7-1-5 1-13 4-11 7-9 5-4z"
     fill="#EDEFF0"
     id="path9" />
  <path
     transform="translate(687,352)"
     d="m0 0h224l13 4 9 6 6 7 4 9 1 5v13l-3 9-5 8-5 4-7 3-85 1v197l3 13 4 6 5 4 11 4v2l-2 1h-94l-15-2-8-5-4-5-3-8-2-13v-195h-65l-8-7-5-8-2-6v-18l5-13 7-9 4-4 1-2zm-3 4-10 2-8 9-5 10-2 10v7l3 10 4 6 4 5 2 1h184l-2-5-3-9v-14l4-10 8-11 9-6 7-4v-1zm56 64-1 3v190l4 16 5 8 5 4 6 2 84 1-2-4-5-8-3-14-1-198z"
     fill="#203144"
     id="path10"
     style="fill:#000000;fill-opacity:1" />
  <path
     d="m 0,0 h 42 l 24,4 16,4 16,6 16,8 12,8 10,9 10,10 11,15 7,12 7,17 5,16 4,23 1,11 v 17 l -2,21 -4,18 -8,24 -10,19 -8,11 -9,10 -9,9 -16,11 -16,8 -14,5 -17,4 -16,2 H 11 l -24,-3 -17,-4 -20,-7 -17,-9 -16,-12 -9,-8 -9,-11 -9,-14 -8,-16 -6,-16 -5,-24 -2,-17 v -14 l 2,-22 5,-24 8,-22 10,-18 10,-13 9,-10 11,-10 19,-12 19,-8 19,-5 z m 4,3 -25,4 -20,6 -16,8 -12,8 -10,8 -12,12 -11,15 -8,15 -8,22 -4,18 -2,23 v 14 l 2,22 4,20 7,20 10,19 9,12 12,13 15,11 7.625,6 10,4.625 c 25,14 130,14 156.75,-1.75 L 54.457368,266.5052 12,255 0,246 l -11,-12 -10,-15 -7,-16 -6,-21 -3,-18 v -34 l 3,-20 5,-19 7,-16 8,-14 8,-10 8,-9 15,-11 15,-7 16,-5 19,-3 H 89 V 14 L 68,8 54,5 35,3 Z m 63,16 -19,3 -18,6 -13,7 v 2 l 15,6 12,8 10,9 9,11 9,15 7,17 5,21 2,15 v 29 l -4,25 -6,19 -8,16 -7,11 L 42.5,258.125 109.625,279 C 136.84975,289.21159 35.754823,298.30049 7.0000001,299.625 L -17.417,292.78185 -1,295 l 21,2 h 19 l 23,-2 20,-4 12.282486,-1.6967 L 116,276 l 13,-10 12,-12 10,-14 10,-19 7,-21 3,-12 2,-14 1,-14 V 142 L 172,123 168,104 161,85 151,66 143,55 134,45 127,38 113,28 99,21 85,19 Z m -56,21 -9,8 -12,16 -7,12 -8,21 -4,17 -2,15 v 34 l 3,20 6,20 8,17 10,14 11,12 10,8 9.5,3.625 8.25,-0.375 L 45,251 l 7,-7 10,-14 8,-16 6,-18 4,-22 1,-26 L 79,127 74,106 68,91 63,81 54,68 45,58 37,51 27,45 18,41 Z"
     fill="#203144"
     id="path11"
     sodipodi:nodetypes="ccccccccccccccccccccccccccccccccccccccccccccccccccccccccccccccccccccccccccccccccccccccccccccccccccccccccccccccccccccccccccccccccccccccccccccccccccccccccccccccccccccccccccccccccccccccc"
     transform="translate(478,348)"
     style="fill:#000000;fill-opacity:1" />
  <path
     d="m0 0 14 8 13 4 14 2 102 1 7 11 9 8 10 6v1h-129l-13-4-10-6-9-9-7-14z"
     fill="#BAC3CA"
     id="path12"
     transform="translate(944,602)" />
  <path
     d="m 394.25,605.25 21.25,8 23.25,6.75 31,7.25 46.96788,3.74784 33.02907,2.05026 L 566.5,633 l 14.82627,-0.8033 -35.19112,11.39949 -54.57702,1.94455 L 440.5,635.75 423,629 l -14,-9 -9.25,-8 z"
     fill="#bac3ca"
     id="path12-9"
     sodipodi:nodetypes="ccccccccccccccc" />
  <path
     transform="translate(1142,364)"
     d="m 0,0 h 12 l 13,3 9,6 8,8 c 4.380902,6.572399 5.665792,15.061301 5.778171,15.483496 l -0.337942,4.646446 -0.807612,5.656854 -0.398602,5.308505 -92.620581,-2.580583 -1.292894,0.112438 0.823224,-5.445176 c -0.08316,-1.831974 0.315614,-4.168603 1.741116,-8.473349 C -44.686208,27.476023 -41.091657,22.783582 -38.5,19.625 L -31.875,12.75 -23,7 -7,1 Z"
     fill="#a0aab4"
     id="path13"
     sodipodi:nodetypes="cccccccccccccccccc" />
  <path
     transform="translate(892,357)"
     d="m 0,0 h 22 l 10,4 10,9 4,8 2,9 -1,12 -4,9 -8,7 L 25,60 16,58 8,51 5,45 V 34 L 9,26 14.535534,24.674175 11.707107,22.176777 -32,22 l 3,-5 5,-5 7,-6 13,-5 z"
     fill="#a0aab4"
     id="path14"
     sodipodi:nodetypes="ccccccccccccccccccccccc" />
  <path
     transform="translate(1122,556)"
     d="m 0,0 h 12 l 12,4 6,4 6,9 3,8 v 12 l -4,10 -7,8 -8,4 H 12 L 4,56 -2,51 -5,45 V 38 L -2,33 2,30 11.78125,27.90625 9,26 l -39,-2 2,-6 7,-8 10,-6 z"
     fill="#a0aab4"
     id="path15"
     sodipodi:nodetypes="cccccccccccccccccccccccc" />
  <path
     transform="translate(741,620)"
     d="m 0,0 1,2 9,2 81,1 2,-1 3,10 6,8 v 2 L 18,23 9,19 2.0554563,11.762563 0,3 Z"
     fill="#bac4cb"
     id="path19"
     sodipodi:nodetypes="ccccccccccccc" />
  <path
     transform="translate(858,383)"
     d="M 0,0 H 37 L 34.40901,6.8232233 35.116117,15 37.762563,25 44,31 v 2 H 8 L 3,30 -1,24 -3,16 -2,4 Z"
     fill="#f7f7f7"
     id="path22"
     sodipodi:nodetypes="ccccccccccccc" />
  <path
     transform="translate(1091,583)"
     d="m0 0 26 1-2 6-1 2v11l5 10h-10l-20-3-1-4v-16z"
     fill="#B9C2CA"
     id="path24" />
  <path
     transform="translate(858,383)"
     d="m0 0h20l-4 10v8l4 10 3 3h21v2h-36l-5-3-4-6-2-8 1-12z"
     fill="#B9C2CA"
     id="path25" />
  <path
     d="m 680,411.8 h 163 l 2,2 -2,1 h -172 v -2 z"
     fill="#87939e"
     id="path26"
     style="fill:#9ca6b0;fill-opacity:1" />
  <path
     d="m 678,389 h 163 l 2,2 -2,1 h -172 v -2 z"
     fill="#87939e"
     id="path26-1"
     style="fill:#9ca6b0;fill-opacity:1" />
  <path
     d="m 678.5,394.7 h 163 l 2,2 -2,1 h -172 v -2 z"
     fill="#87939e"
     id="path26-1-5"
     style="fill:#9ca6b0;fill-opacity:1" />
  <path
     d="m 679.5,406.1 h 163 l 2,2 -2,1 h -172 v -2 z"
     fill="#87939e"
     id="path26-1-5-7"
     style="fill:#9ca6b0;fill-opacity:1" />
  <path
     d="m 679,400.4 h 163 l 2,2 -2,1 h -172 v -2 z"
     fill="#87939e"
     id="path26-1-5-7-1"
     style="fill:#9ca6b0;fill-opacity:1" />
  <path
     transform="translate(1012,507)"
     d="m0 0h119l9 1v2h-128z"
     fill="#808C98"
     id="path28"
     style="fill:#9ca6b0;fill-opacity:1" />
  <path
     d="m 1007.1,500.7 h 119 l 9,1 v 2 h -128 z"
     fill="#808c98"
     id="path28-7"
     style="fill:#9ca6b0;fill-opacity:1" />
  <path
     d="m 1002.3,494.3 h 119 l 9,1 v 2 h -128 z"
     fill="#808c98"
     id="path28-7-1"
     style="fill:#9ca6b0;fill-opacity:1" />
  <path
     d="m 997.4,487.9 h 119 l 9,1 v 2 H 997.4 Z"
     fill="#808c98"
     id="path28-7-1-9"
     style="fill:#9ca6b0;fill-opacity:1" />
  <path
     d="m 992.5,481.5 h 119 l 9,1 v 2 H 992.5 Z"
     fill="#808c98"
     id="path28-7-1-9-7"
     style="fill:#9ca6b0;fill-opacity:1" />
  <path
     transform="translate(1107,584)"
     d="m0 0h10l-2 6-1 2v11l5 10h-10l-4-2-2-6v-12z"
     fill="#F1F2F3"
     id="path29" />
  <path
     d="m 362,471 h 69 v 3 h -69 z"
     fill="#808c98"
     id="path31"
     style="fill:#9ca6b0;fill-opacity:1" />
  <path
     d="m 362,478.75 h 69 v 3 h -69 z"
     fill="#808c98"
     id="path31-9"
     style="fill:#9ca6b0;fill-opacity:1" />
  <path
     d="m 362,502 h 69 v 3 h -69 z"
     fill="#808c98"
     id="path31-8"
     style="fill:#9ca6b0;fill-opacity:1" />
  <path
     d="m 749,486 h 69 v 3 h -69 z"
     fill="#808c98"
     id="path31-8-5-5"
     style="fill:#9ca6b0;fill-opacity:1" />
  <path
     d="m 749,493.75 h 69 v 3 h -69 z"
     fill="#808c98"
     id="path31-8-5-1-4"
     style="fill:#9ca6b0;fill-opacity:1" />
  <path
     d="m 749,470.5 h 69 v 3 h -69 z"
     fill="#808c98"
     id="path31-3"
     style="fill:#9ca6b0;fill-opacity:1" />
  <path
     d="m 749,478.25 h 69 v 3 h -69 z"
     fill="#808c98"
     id="path31-9-1"
     style="fill:#9ca6b0;fill-opacity:1" />
  <path
     d="m 749,501.5 h 69 v 3 h -69 z"
     fill="#808c98"
     id="path31-8-2"
     style="fill:#9ca6b0;fill-opacity:1" />
  <path
     d="m 751,576.4 h 69 v 3 h -69 z"
     fill="#808c98"
     id="path31-8-5-5-3"
     style="fill:#9ca6b0;fill-opacity:1" />
  <path
     d="m 751,584.1 h 69 v 3 h -69 z"
     fill="#808c98"
     id="path31-8-5-1-4-4"
     style="fill:#9ca6b0;fill-opacity:1" />
  <path
     d="m 751,561 h 69 v 3 h -69 z"
     fill="#808c98"
     id="path31-3-1"
     style="fill:#9ca6b0;fill-opacity:1" />
  <path
     d="m 751,568.7 h 69 v 3 h -69 z"
     fill="#808c98"
     id="path31-9-1-1"
     style="fill:#9ca6b0;fill-opacity:1" />
  <path
     d="m 751,591.8 h 69 v 3 h -69 z"
     fill="#808c98"
     id="path31-8-2-3"
     style="fill:#9ca6b0;fill-opacity:1" />
  <path
     d="m 387,581.5 h 69 v 3 h -69 z"
     fill="#808c98"
     id="path31-8-5-5-3-7"
     style="fill:#9ca6b0;fill-opacity:1" />
  <path
     d="m 390.5,588.75 h 69 v 3 h -69 z"
     fill="#808c98"
     id="path31-8-5-1-4-4-4"
     style="fill:#9ca6b0;fill-opacity:1" />
  <path
     d="m 380,567 h 69 v 3 h -69 z"
     fill="#808c98"
     id="path31-3-1-2"
     style="fill:#9ca6b0;fill-opacity:1" />
  <path
     d="m 383.5,574.25 h 69 v 3 h -69 z"
     fill="#808c98"
     id="path31-9-1-1-7"
     style="fill:#9ca6b0;fill-opacity:1" />
  <path
     d="m 394,596 h 69 v 3 h -69 z"
     fill="#808c98"
     id="path31-8-2-3-7"
     style="fill:#9ca6b0;fill-opacity:1" />
  <path
     d="m 397.5,396 h 69 v 3 h -69 z"
     fill="#808c98"
     id="path31-8-5-5-3-7-3"
     style="fill:#9ca6b0;fill-opacity:1" />
  <path
     d="m 392.25,403 h 69 v 3 h -69 z"
     fill="#808c98"
     id="path31-8-5-1-4-4-4-1"
     style="fill:#9ca6b0;fill-opacity:1" />
  <path
     d="m 408,382 h 69 v 3 h -69 z"
     fill="#808c98"
     id="path31-3-1-2-9"
     style="fill:#9ca6b0;fill-opacity:1" />
  <path
     d="m 402.75,389 h 69 v 3 h -69 z"
     fill="#808c98"
     id="path31-9-1-1-7-8"
     style="fill:#9ca6b0;fill-opacity:1" />
  <path
     d="m 387,410 h 69 v 3 h -69 z"
     fill="#808c98"
     id="path31-8-2-3-7-6"
     style="fill:#9ca6b0;fill-opacity:1" />
  <path
     transform="translate(1000 382)"
     d="m0 0 88 1v2h-88z"
     fill="#9CA6B0"
     id="path33" />
  <path
     d="m 997.1,387.9 88,1 v 2 h -88 z"
     fill="#9ca6b0"
     id="path33-2" />
  <path
     d="m 994.2,393.8 88,1 v 2 h -88 z"
     fill="#9ca6b0"
     id="path33-2-2" />
  <path
     d="m 991.3,399.7 88,1 v 2 h -88 z"
     fill="#9ca6b0"
     id="path33-2-2-1" />
  <path
     d="m 988.4,405.6 88,1 v 2 h -88 z"
     fill="#9ca6b0"
     id="path33-2-2-1-8" />
  <path
     style="fill:#bac4cb;stroke-width:0.176777;fill-opacity:1"
     d="m 580.62306,624.73254 c -3.98632,-1.24715 -19.06095,-5.94126 -33.49919,-10.43137 -14.43823,-4.49009 -26.2793,-8.19169 -26.31349,-8.22573 -0.0342,-0.034 4.04648,-4.3031 9.06813,-9.48678 l 9.13028,-9.42487 3.53636,-5.54332 c 3.2756,-5.13459 3.83065,-6.13173 7.52779,-13.52342 l 3.99144,-7.98009 2.99308,-9.45755 2.99309,-9.45756 2.02194,-12.59385 2.02195,-12.59386 0.003,-14.45298 0.003,-14.45298 -0.9954,-7.51301 -0.9954,-7.513 -2.52574,-10.60661 -2.52574,-10.6066 -3.49121,-8.47181 -3.49122,-8.4718 -4.51415,-7.52055 -4.51415,-7.52055 -4.49302,-5.48601 -4.49302,-5.48602 -4.97608,-4.4844 -4.97607,-4.48441 -6.01041,-4.0131 -6.01041,-4.0131 -7.47652,-2.98596 -7.47653,-2.98595 0.0519,-0.9768 0.0519,-0.97681 6.27558,-3.39341 6.27557,-3.39342 9.28077,-3.09332 9.28078,-3.09331 9.104,-1.42708 9.104,-1.42709 9.4703,5.7e-4 9.4703,5.7e-4 6.73756,0.96612 6.73756,0.96613 6.94989,3.47195 6.94988,3.47195 6.8943,4.92383 6.89429,4.92383 4.35758,4.38248 c 7.28555,7.32719 11.02424,11.62948 15.7906,18.17107 l 4.12174,5.65685 4.98081,9.45755 4.98081,9.45756 3.51751,9.54594 3.51751,9.54594 1.96361,9.28078 1.9636,9.28077 1.04574,9.81111 1.04574,9.81111 10e-4,8.57829 c 10e-4,7.78884 -0.0475,9.25303 -0.5286,15.9099 -0.43095,5.96312 -0.71368,8.61847 -1.51469,14.2259 -0.922,6.45441 -1.08523,7.2947 -2.55828,13.16987 -1.3555,5.4063 -2.04821,7.69576 -5.00101,16.52862 l -3.42756,10.25304 -5.03414,9.54595 -5.03413,9.54594 -4.91329,6.89429 -4.91329,6.89429 -5.85494,5.88537 -5.85493,5.88538 -6.71752,5.17199 c -6.11684,4.70951 -6.97471,5.3095 -9.59385,6.70996 -1.58199,0.84588 -2.93433,1.53193 -3.00521,1.52454 -0.0709,-0.007 -3.39039,-1.03382 -7.3767,-2.28096 z"
     id="path36" />
  <!-- Cyan border around letters -->
  <path
     transform="translate(478,348)"
     d="m 3.75,-2.75 36,0.5 25.75,3.5 16.5,5 16,7.75 16,8 12,8 10,9 10,10 11,15 7,12 7,17 5,16 4,23 1,11 v 17 l -2,21 -4,18 -8,24 -10,19 -8,11 -9,10 -9,9 -14.76256,11 -14.58579,8 L 85,296 69.414214,300.88388 52,302 11,303.06066 -13,299 -31.06066,295.88388 -50,290.12132 -68.237437,280.41421 -83,267 l -9,-8 -9,-11 -9,-14 -8,-16 -6,-16 -5,-24 -2,-17 v -14 l 2,-22 5,-24 8,-22 10,-18 8.5,-13 9.75,-10.75 L -76,26.75 -58.5,15 -39.5,6.25 -19.25,1 Z"
     fill="none"
     stroke="#22d3ee"
     stroke-width="4"
     stroke-linejoin="round"
     id="cyan-O"
     sodipodi:nodetypes="ccccccccccccccccccccccccccccccccccccccccccccccccccccc" />
  <path
     transform="translate(489,388)"
     d="M 1.2766504,1.6838203 11.59099,3.767767 23,9 l 10,8 8,8 9,13 6,11 6,14 5,19 2,12 1,14 -1,26 -4,22 -6,18 -7.75,13.625 -7.75,11.125 -8.125,9.25 -7.75,6.875 L 16.5,213.5 5.3017767,212.53033 -8,202 l -9,-10 -9,-14 -8,-18 -5,-17 -3,-20 V 89 l 3,-20 4,-15 7,-18 10,-16 12.767767,-14.5303301 z"
     fill="none"
     stroke="#22d3ee"
     stroke-width="4"
     stroke-linejoin="round"
     id="cyan-O-hole"
     sodipodi:nodetypes="ccccccccccccccccccccccccccccccccc" />
  <path
     transform="translate(687,352)"
     d="m 0.5,-1.5 223.5,-0.25 13.75,4.25 8.5,5.5 6.75,6.75 4.25,8.75 1.75,7 -0.25,12.75 -2.25,9.5 -5,7.75 -5.25,4.75 -8,4.5 -86.75,0.75 0.5,195.5 3,13 4,6 5,4 11,4 v 2 l -3.76777,2.06066 L 82.358757,296.88388 66.474874,295.41421 56,289 52,284 49,276 47,263 45.5,70.25 -16.75,70 -26,61 -31,53 -33,47 V 29 l 5,-13 7,-9 4,-4 4.75,-3.5 z"
     fill="none"
     stroke="#22d3ee"
     stroke-width="4"
     stroke-linejoin="round"
     id="cyan-T"
     sodipodi:nodetypes="ccccccccccccccccccccccccccccccccccccc" />
  <path
     transform="translate(1062,349)"
     d="m 0,0 h 26 l 36,3 23,4 17,5 12,6 9,8 6,10 3,10 -0.53033,11.641243 -0.74695,9.868272 L 32.80404,65.499107 34.637672,75.868272 37,84 l 7,16 10,14 21,21 8,7 7,7 8,7 13,15 11,18 5,11 4,16 1,8 v 22 l -4,18 -7,14 -8,9 -11,7 -10,4 -4,1 H -78 l -14,-4 -12,-7 -9,-8 -8,-14 -3,-8 -1,-14 2,-10 5,-12 9,-10 11,-7 10,-3 h 49 l -3,-8 -9,-13 -11,-13 -14,-17 -10,-16 -6,-13 -4,-16 -1,-6 V 79 l 3,-15 5,-12 6,-11 11,-12 10,-9 16,-9 16,-6 19,-4 z"
     fill="none"
     stroke="#22d3ee"
     stroke-width="4"
     stroke-linejoin="round"
     id="cyan-S"
     sodipodi:nodetypes="ccccccccccccccccccccccccccccccccccccccccccccccccccccccccccccccc" />
</svg>
